<?xml version="1.0" encoding="UTF-8"?>
<svg id="Camada_2" data-name="Camada 2" xmlns="http://www.w3.org/2000/svg" viewBox="0 0 860.08 691.27">
  <defs>
    <style>
      .cls-1 {
        fill: #fff;
      }
    </style>
  </defs>
  <g id="Camada_1-2" data-name="Camada 1">
    <g>
      <path d="M492.04,556.97c-32.9-1.74-61.75-10.49-91.15-22.71l-86.08-35.78c-21.32-8.86-42.47-16.13-65.01-20.82-26.47-5.51-50.38,5.49-67.37,26.21-16.99,20.72-35.6,37.72-60.62,49.21-7.59,3.49-17.03,9.28-20.15,17.48-7.07,18.57-7.78,39.13-3.44,58.22,18.99,11.16,32.23,24.04,21.33,41.5-18.23,6.76-36.99,5.85-55.95,3.47-17.6-2.21-19.99-23.6-18.5-44.57,1.78-25.15,1.04-48.9-2.9-73.9-1.22-7.73,1.91-15.29,6.93-20.86l16.3-18.08c4.22-16.37,4.03-32.23,4.72-49.08l1.3-31.99c1.4-34.46,11.32-65.86,35.2-91.59l-22.2-15.12C37.48,300.76,5.69,252.47.96,197.5c-1.7-19.71-2.18-53.2,7.64-64.34,5.75,4.04,8.13,9.42,8.74,16.19l2.37,26.2c6.5,71.67,55.06,115.48,124.21,131.07,87.55-36.46,159.05-18.77,242.13-15.78l31.96,1.15c29.92,1.08,56.87-5.96,84.23-16.43,17.18-6.58,29.25-17.2,36.83-35.7,34.14,22.2,75.48,31.29,94.63-3.47,8.96-16.25,10.91-37.22,7.09-55.82-3.95-19.18-12.16-35.86-20.85-53.05l-6.76-13.37c-9.45-18.69-13.62-35.44-11.09-58.37-10.37,13.75-7.86,31.24-3.49,47.23,8.46,30.94,44.2,66.19,33.17,113.83-4.55,19.67-20.68,35.4-41.42,33.33-47.07-4.71-83.41-45.7-112.17-83.01-4.79-6.22-6.37-17.3-2.38-24.18l18.42-31.75,34.71-49.15c7.04-11.23,17.81-18.25,30.97-20.43,12.88-17.03,29.93-24.88,48.81-31.89,32.82-12.2,65.53-13.21,99.07-1.73,10.04,3.44,21.68,5.61,27.06,16.47,2.84,5.73,8.33,12.53,15.94,12.39l53.23-.98,43.12.38c21.2.19,13.34,47.84-2,61.96-31.2,28.72-73.13,39.7-114.87,36.95-4.44-.29-8.81.66-12.79,2.92,17.54,9.8,36.44,11.69,56.55,13.99,18.96,2.18,36.54,1.67,56.14-.7,5.26,14.45-18.6,29.52-38.27,31.12l-46.22,3.77c-21.09,1.72-26.62,28.97-25.98,52.95l1.59,60.03,1.29,57.47,2.01,22.52c2.2,24.69,1.11,47.79-10.86,70.09-6.86,12.79-15.08,26.35-18.57,40.57l-15.05,61.33c-6.09,24.82-3.94,67.07,21.29,68.91,19.51,1.43,34.44,17.23,32.47,36.59-3.54,3.72-11.26,7.73-16.37,7.8l-49.69.66c-6.62.09-17.57-4.55-21.15-9.95-6.87-10.34-9.26-21.78-14.07-32.56-7.51-16.81-10.31-32.52-11.05-51.62l-3.68-19.14c16.18-9.34,29.69-18.33,41.22-33.15l-44.88,24.59c-10.97,6.01-21.49,9.59-34.47,11.3-2.42-14.84-1.33-25.68,0-39.87-17.32,26.42-1.46,56.48-2.66,78.08-.93,16.94-2.95,37.75,11.96,49.25,8.88,6.86,20.09,10.62,23.3,23.2.85,3.32,1.55,10.16.49,13.09-1.18,3.27-6.89,8.15-10.75,8.58l-34.24,3.77c-13.08,1.44-31.05-.22-40.41-10.7-8.76-9.8-4.29-26.6-8.24-37.86-5.37-15.31-8.15-28.19-10.3-44-4.89-35.95-16.78-70.05-27.31-104.84l6.58-26.63c-12.12,15.88-15.86,25.13-9.08,43.08,5.79,15.36,9.71,28.74,12.97,47.08Z"/>
      <path d="M708.63,57.79c-5.58-8.84-16.24-12.86-23.99-8.93s-13.97,12.66-8.86,22.63c8.48-12.95,18.78-15.65,32.85-13.7Z"/>
      <path d="M303.57,651.01c-16.3,2.23-33.31,2.51-49.63.9-12.09-1.19-19.42-7.67-24.24-18.38-9.42-20.94-21.81-39.66-35.81-57.69-9.25-11.92-9.43-25.38.31-36.52,8.06-9.21,9.97-19.67,10.37-32.22l.41-12.81c30.14-18.77,67.02-3.7,99.36,10.15-6.27,20.36-19.51,32.83-36.86,42.48-6.79,3.78-15.64,11.19-15.14,20.96.77,14.83,10.03,36.08,23.54,42.38,16.71,3.42,31.12,6.82,37.09,24.62,2.16,6.44-.74,14.94-9.41,16.13Z"/>
      <path class="cls-1" d="M708.63,57.79c-14.07-1.95-24.37.74-32.85,13.7-5.1-9.97,1-18.64,8.86-22.63s18.41.09,23.99,8.93Z"/>
    </g>
  </g>
</svg>