<?xml version="1.0" encoding="UTF-8"?>
<svg id="Camada_2" data-name="Camada 2" xmlns="http://www.w3.org/2000/svg" viewBox="0 0 620.94 846.36">
  <g id="Camada_1-2" data-name="Camada 1">
    <path d="M249.95,717.05c-18.41,11.14-4.87,51.29,4.01,77.1,4.24,12.34,5.8,25.64-2.13,36.98-4.55,6.5-14.72,6.71-22.16,3.18-12.47-5.93-22.88-18.31-24.5-32.41-3.13-27.18-7.86-52.07-16.35-78.17-1.64-5.04-2-16.65.85-20.87,11.86-17.53,34.69-20.5,22.21-40.41l14.58-33.03c5.27-11.94,13.31-22.36,22.29-31.46l15.45-15.65c-35.55,14.58-47.55,44.55-61.98,76.91-10.29,23.07-27.9,40.52-50.77,51.05-13.06,6.01-23.47,15.47-23.43,30.98l.13,47.16c.04,15.2,8.83,50.16-18.42,57.22-10.82,2.8-19.53-2.92-26.85-10.05-11.2-10.92-14.7-23.75-10.91-38.96,13.86-55.63-3.28-95,16.45-108.79l14.19-9.92-4.49-37.1c-2.67-22.09-.94-43.66,8.04-63.9-22.31-6.47-43.83-11.74-61.47-25.08C12.13,527.2-3.55,488.14.68,448.32c2.84-26.78,9.2-52.48,31.86-70.82,4.63,13.14-7.55,28.56-8.54,43.16-.94,13.99-1.88,28.13.23,41.86,3.68,23.97,17.61,46.41,38.09,59.45,16.95,10.79,43.04,19.2,61.17,10.69,13.74-11.45,23.94-26.9,38.69-37.68,41.55-30.36,75.76-67.89,100.95-112.77,13.38-23.83,21.28-47.64,26.01-74.45,6.19-35.11,25.7-49.83,12.84-93.51l-19.85-67.43-20.42,24.1c-25.93,30.59-79.1,25.05-115.11,6.78-11.11-5.63-21.24-17.34-17.7-30.19,5.26-19.14,46.01-24.66,58.73-36.9l26.44-25.44c15.17-14.6,31.9-24.85,53.34-26.49,17.29-1.32,18.05-19.51,38.28-33.81C340.36.33,388.01-11,424.18,14.21c9.19,6.4,20.01,6.98,30.74,4.16l46.42-12.17c7.58-1.99,19.18-3.24,26.32-2.04,10.32,9.91,9.7,23.79,8.33,36.51-3.48,32.29-37.99,48.33-68.64,61.02,1.56,1.59,5.44,2.66,8.61,2.17l31.91-4.9,17.43-4.79c.91,16.8-8.46,27.73-22.36,33.9l-42.74,18.94c-15.33,6.8-19.99,24.02-16.75,39.53,4.14,19.84,14.34,35.77,26.96,51.35,11.69,14.43,20.2,29.74,26.95,47l2.11,5.4c2.3,5.89,13.24-9.03,32.05-8,18.12.99,33.79-1.34,50.7-6.94,10.46-3.46,23.94-4.38,33.7,1.27,6.54,3.79,5.73,14.98,3.01,21.15-19.23,43.58-65.26,22.64-79.46,36.37l-22.48,21.75c-5.79,5.6-13.23,2.54-18.12-2.09-21.24-20.09-49.07-17.91-75.91-7.81l39,1.03c12.92.34,25.6,9.93,35.38,17.76l34.65,27.72c8.65,6.92,15.46,18.82,15.28,29.61-.28,16.34-14.36,20.76-27.23,21.44-19.97,1.06-34.07-3.94-45.42-20.53l-13.08-14.58c-4.06-4.52-12.51-4.55-18.22-2.31l-47.65,18.7c-6.93,2.72-21.16,3.23-26.4-1.11l-16.16-13.39c3.97,11.03,11.1,21.44,23.1,24.37,8.51,2.08,20.79-.55,29.25-3.89l46.68-18.44,18.01,20.75c-13.56,28.3-30.61,53.28-50.91,77.4-25.15,29.88-55.6,53.21-85.95,77.46-12.02,9.6-16.58,21.34-18.37,36.92l-2.55,22.09c-3.03,26.31-18.91,46.38-42.45,57.99l-19.97,12.09ZM413.81,44.35c-5.78-7.59-16.28-8.51-22.74-4.08-4.84,3.31-9.35,13.78-4.62,19.24,7.93-10.09,15.27-15.81,27.37-15.16Z"/>
  </g>
</svg>