<?xml version="1.0" encoding="UTF-8"?>
<svg id="Camada_2" data-name="Camada 2" xmlns="http://www.w3.org/2000/svg" viewBox="0 0 1141.39 872.34">
  <g id="Camada_1-2" data-name="Camada 1">
    <g>
      <path d="M933.42,740.11c-8.57-18.92-36.1-15.47-61.66-40.45-1.66-1.62-5.15-3.64-8.88-5.84,3.6,9.96,6.88,16.33,12.35,25.08-14.32-7.14-25.4-18.4-35.01-31.37l-23.79-32.13c-6.69-9.03-15.89-15.59-26.65-17.99l5.42,14.54-15.39-17.57c-13.13,1.22-20.38,9.17-30.42,17.99l3.78-19.65c-31.81,10.34-51.48,38.97-60.45,43.83-1.22.66-3.52-2.6-3.62-3.98l-.56-7.87-16.34,16.09-19.02,27.27c-2.74-12.4.62-21.17,1.84-34.8-17.96,12.5-26.98,29.72-36.04,49.22,1.79.48-5.44,1.78-5.55.54l-2.68-29.68c-12.24,11.7-17.51,30.69-10.27,49.71-18.49-4.29-28.42-16.27-36.01-33.46-7.25,12.82-3.02,28.03-22.92,35.04,1.55-3.93,4.23-9.31,3.73-11.9l-2.7-14.16-10.88,17.68c-6.25,10.15-13.54,18.42-26.56,22.03.91-11.08,12.86-12.99,8.1-32.99l-13.7,15.26-15.29,12.65c.64-12.88,3.04-24.53-.91-36.25l-9.99-29.66,18.77,11.21c-.84-18.93-11.99-32.14-22.4-46.49l-10.85-14.96-10.39-23.75c-3.55,12.52,1.94,25.5,9.42,36.25l22.84,32.82-30.03-8.71c14,14.32,23.58,28.26,23.93,47.95-8.94-8.13-13.9-15.51-24.77-19.51,15.84,18.39,29.31,40.62,21.46,67.21-5.6-11.37-11.12-21.84-22.99-30.25l15.63,52.23c-14.06-6.56-22.96-14.15-35.2-23.95,1.64,15.43,13.34,20.76,23.4,31.54l-32.68-10.64c1.43,14.16,13.02,18.97,14.67,28.32-11.42-2.37-18.32-5.9-26.45-12.57l-.28,21.78c-4.66,3.17-6.84,7.61-6.99,13.3-.38,15.2-9.21,26.81-24.26,29.73-25.11,4.86-71.76,6.86-89.03-8.16-3.19-36.25,29.48-40.2,36.4-47.95,13.37-14.97,9.24-33.67,8.12-51.09l2.23-39.31c.64-11.29-.41-21-5.77-30.65l-5.57,60.65-23.02-11.07,2.21,22.33-7.38,4.74c0,9.34-.96,16.38-3.65,25.7l-8.53-12.97c-1.08,13.24-1.83,21.78-4.96,32.17l-6.82-.48c-5.65,16.52-15.35,32.67-31.36,32.5l-69.59-.73c-4.56-.05-12.92-4.07-13.47-8.01-3.73-26.67,21.92-42.46,49.94-43.57,15.88-15.97,18.09-39.81,14.62-60.89l-4.61-28.01c-1.75-10.66-6.35-19-11.67-28.29-3.68-6.44-6.91-14.29-11.73-20.37,1.76,19.24,6.21,35.03-3.96,49.64-2.42-17.96-7.96-32.75-17.09-46.73-9.28-14.21-13.67-27.93-17.72-46.93-6.09,12.72-4.32,24.59-2.28,39.86-14.44-6.79-23.48-42.19-22.82-59.38l1.25-32.52-11.99,11.72c-3.14,3.07-8.79,6.02-13.19,6.64,7.5-14.28,11.42-24.3,12.28-38.29l2.37-38.79c-8.92,6.13-11.4,16.43-12.85,26.52-1.43.46-2.74.95-3.12.39-.56-.84-2.51-4.43-2.61-5.5l-2.44-26.05c-1.93-20.6,6.56-39.99,14.25-58.47l7.36-17.68c-12.79,5.19-14.49,15.29-21.87,22.62-3.97,3.94-9.26-22.5,15.13-58.74l17.47-25.96c-16.2,2.54-22.7,12.57-33.58,23.66-1.48-18.19,20.12-36.91,35.46-52.36h-32c17.39-8.76,33.21-16.74,41.95-34.64-8.86,2.24-14.95,3.88-24.26,3.39,17.98-10.47,27.86-23.82,35.22-42.17,8.97-22.36,4.27-46.46-16.81-61.05-38.45-26.61-87.32-13.34-107.43-68.07-2.85-5.83-12.1-13.08-14.23-18.97L.47,67.16c-1.39-3.85.51-12.93,2.91-16s9.03-6.7,14.04-7.3c34.48-4.17,67.33-4.2,102.26-3.66,12.14.19,27.29.73,36.15-7.81l20.48-19.74C206.07-.08,238.34-3.53,269.95,3.8c42.02,9.75,78.26,24.29,99.08,63.37l25.95,8.59-13.29,6.64c13.12,8.63,22.52,12.07,32.97,24.94l-15.04-.8,15.11,28.01c1.68,3.12.59,11.97.77,15.57,6.73,14.62,15.25,28.16,24.87,41.28,3.52,4.8,5.41,11.7,5.13,16.47l-18.12-15.15c10.97,27.19,22.58,51.1,9.36,74.03-2.52-10.17-5.09-18.55-10.1-26.35-4.14,16.88-6.12,28.93-12.71,41.03l-4.73-13.29c-9.1,22.3-16.69,43.17-12.09,66.3-11.79-7.05-14.09-19.11-19.44-32.32-7.43,18.22-11.36,35.87-6.72,54.6-11.47-5.48-12.28-18.19-17.54-30.57-6.22,18.67-5.33,37.53-18.73,51.26-1.3-13.46-3.33-24.43-8.07-34.22-6.64,18.81-14.63,34.24-31.95,43.8.93-10.22,1.62-19.86-2.35-28.95l-7.28-16.68c-2.87,12.44-6.44,23.75-17,31.04,2.22-10.66,1.08-20.53-2.51-30.26l-14.45-39.15-5.2,14.1c-8.03-23.11-1.67-44.15,7.73-65.47l-19.58,19.05c2.85-32.09,25.67-66.7,46.37-93.83,13.73-18,25.23-48.51,20.07-69.3-5.97,18.72-8,37.6-18.81,52.46l-30.48,41.91c-17.42,23.95-28.07,63.13-26.63,93.8l10.11-14.55c-.19,20.7,1.97,38.97,11.78,55.61l2.03-5.03c.27-.66,1.42-2.1,1.81-1.51l2.82,4.24c10.8,16.22,12.52,33.43,3.43,51.8,13.9-3.95,21.44-11.36,29.67-23.19,2.14,12.61,1.15,23.17-3.66,36.88,18.14-4.98,31.04-16.86,42.58-34.95,3.77,7.54,3.63,16.12,2.98,26.46,14.03-9.13,20.86-24.49,27.11-40.67,7.7,10.05,14.38,17.06,24.89,22.38-5.28-18.55-5.2-34.15-1.44-51.55,7.34,13.13,15.33,22.73,30.03,26.75-6.2-17.93-8.59-36.8,1.28-53.98,15.6,51.42,43.06,54.83,89.93,62.81l-3.08,3.39c-.4.44-.27.68-.11,2.75,32.71,8.44,64.89,10.23,98.93,7.7l141.94-8.7c49.21-3.02,96.1,5.59,141.88,23.15,21.17-5.41,40.95-12.73,57.48-26.1l32.04-25.89c22.12-24.12,34.17-55.64,39.89-87.82,2.47-13.92,1.78-29.37.35-43.52-2.69-26.65-14.54-50.34-29.76-71.91-12.33-17.46-29.55-28.37-47.33-42.21,21.67-2.8,38.76,6.88,57.77,14.64-.48-2.65-3.58-9.91-6-11.3l-25.65-14.64c-3.25-1.7-2.5-2.39.55-2.12,25.5,5.47,46.5,17.85,63.57,37.46,1.76,1.05,3.8.88,3.52-.37-7.6-14.76-14.48-24.29-25.02-35.08,34.91,9.01,56.8,35.1,69.12,67.17,2.77-9.37.9-16.51-1.35-24.28l-5.96-20.52c26.42,22.89,36.25,56.37,38.1,92.6,8.98-17.36,2.84-33.61,5.75-51.87l4.46,8.98c16.21,32.6,13.94,68.31,1.86,104.46,16.24-14.86,23.08-54.66,21.9-55.06l4.5,1.53.13,38.54c.12,36.85-19.91,66.99-48.59,90.21,21.87-6.29,35.15-23.19,50.53-36.29.83,11.59-3.02,18.64-6.87,26.75-12.3,25.91-32.36,44.25-60.25,54.33-2.09.81-3.79,4.43-1.37,3.94,17.33.58,30.02-1.2,44.46-7.71.73-.28,2.9-.67,2.61-.17-.51.87-2.26,4.13-2.94,4.75l-12.14,11.06c-16.89,15.37-38.86,16.56-62.19,21.76,17.55,5.35,34.63,2.94,53.63,1.5-12.83,12.26-29.19,18.17-46.98,19.23l-48.46-3.35,19.22,11.85c8.41,5.19,15.27,16.51,8.45,12.88-17.59-5.42-34.58-9.17-52.99-10.51l-1.1,5c-.19.86-3.12.43-4.33.56l-23.25,2.31,35.94,49.16c17.71,24.22,23.99,56.28,14.39,51.39l-9.6-4.89,6.65,31.52c3.33,15.8,10.5,28.77,22.55,39.85l-.2,3.35-16.23-6.89c-3.64-3.21-6.03-5.4-11.17-5.96,4.04,20.77,13.26,35.23,26.59,50.67l-22.1-10.82c-.51-.1-5.42-.46-3.34-.19,8.57,15.11,21.94,21.28,37.63,21.16-8.44,11.21-22.14,11.39-37.56,9.99,17.3,15.64,30.84,34.11,27,55.59l-12.98-11.7-1.01,27.7,3.44,68.09-2.84,24.38c-2.3,19.73-24,20.85-44.41,22.01-20.68,1.18-47.8,1.37-55.22-12.62.6-20.93,12.65-35.66,33.25-40.14,9.79-18.02,4.39-48.99-4.13-67.79ZM223.6,70.84c.95-6.3-4.75-15.78-9.25-15.57l-16.26.78c0,11.64,9.77,13.31,25.51,14.79Z"/>
      <path d="M758.03,834.33c-27.27,4.21-80.9,6.78-79.84-8.39,1.56-22.36,23.16-36.84,44.65-33.49,17.08-18.76,35.14-43.09,26.4-62.32-7.95-17.51-41.53-15.18-52.58-45.81l22.22-20.92,22.57-16.83,5.41,24.2,16.91-20.84c1.92-2.36,7.74-5.65,10.66-5.46s8.29,3.86,10.03,6.37l13.16,18.91.81-19.91c9.95,8.49,16.2,18.99,22.17,32.39,1.25,2.91,1.01,4.26-4.81,2.27-1.93,21.98,23.54,37.39,4,64.04-16.7,22.77-29.95,46.31-42.05,71.78-3.42,7.19-12.31,12.89-19.72,14.03Z"/>
    </g>
  </g>
</svg>